# xmcd
#
# Track frame offsets:
#	150
#	18101
#	35809
#	56623
#	78669
#	95090
#	112524
#	134638
#
# Disc length: 2061 seconds
#
# Revision: 1
# Processed by: cddbd v1.5.2PL0 Copyright (c) Steve Scherf et al.
# Submitted via: audiograbber 1.83.01
#
DISCID=64080b08
DTITLE=Taylor Swift - Speak Now Deluxe Edition [Disc 2]
DYEAR=2010
DGENRE=Country
TTITLE0=Ours
TTITLE1=If This Was A Movie
TTITLE2=Superman
TTITLE3=Back To December (Acoustic)
TTITLE4=Haunted (Acoustic)
TTITLE5=Mine (US Version)
TTITLE6=Back To December (US Version)
TTITLE7=The Story Of Us (US Version)
EXTD=
EXTT0=
EXTT1=
EXTT2=
EXTT3=
EXTT4=
EXTT5=
EXTT6=
EXTT7=
PLAYORDER=
